<?xml version="1.0" encoding="UTF-8" standalone="no"?>
<!DOCTYPE svg PUBLIC "-//W3C//DTD SVG 1.1//EN" "http://www.w3.org/Graphics/SVG/1.1/DTD/svg11.dtd">
<svg width="100%" height="100%" viewBox="0 0 4153 1352" version="1.1" xmlns="http://www.w3.org/2000/svg" xmlns:xlink="http://www.w3.org/1999/xlink" xml:space="preserve" xmlns:serif="http://www.serif.com/" style="fill-rule:evenodd;clip-rule:evenodd;stroke-linejoin:round;stroke-miterlimit:2;">
    <g transform="matrix(3.125,0,0,3.125,0,0)">
        <g transform="matrix(0.767129,0,0,1.72782,-149.103,-24.4877)">
            <path d="M1926.33,108.757L1926.33,202.08C1926.33,219.249 1894.94,233.187 1856.27,233.187L558.878,233.187C520.209,233.187 488.814,219.249 488.814,202.08L488.814,108.757C488.814,91.588 520.209,77.649 558.878,77.649L1856.27,77.649C1894.94,77.649 1926.33,91.588 1926.33,108.757Z" style="fill:rgb(4,47,59);"/>
        </g>
        <g transform="matrix(0.112634,0,0,0.498171,120.724,33.6649)">
            <path d="M1926.33,96.988L1238.55,359.225C1180.48,359.428 488.871,105.76 488.871,105.76C488.871,95.087 617.64,77.649 776.318,77.649L1638.83,77.649C1797.51,77.649 1926.33,86.314 1926.33,96.988Z" style="fill:url(#_Linear1);"/>
        </g>
        <g transform="matrix(0.112634,0,0,0.498171,120.724,33.6649)">
            <path d="M1926.33,96.988L1926.33,213.849C1926.33,224.522 1797.51,233.187 1638.83,233.187L776.318,233.187C617.64,233.187 488.814,224.522 488.814,213.849L488.814,96.988C488.814,86.314 617.64,77.649 776.318,77.649L1638.83,77.649C1797.51,77.649 1926.33,86.314 1926.33,96.988Z" style="fill:rgb(4,47,59);"/>
        </g>
        <g transform="matrix(0.920931,0,0,0.920931,353.172,-1068.07)">
            <g transform="matrix(250,0,0,250,1009.77,1508.02)">
            </g>
            <text x="181.52px" y="1508.02px" style="font-family:'Phosphate-Solid', 'Phosphate';font-size:250px;fill:url(#_Linear2);">splurv</text>
        </g>
        <g id="piggy-bank-solid--1-.svg" serif:id="piggy-bank-solid (1).svg" transform="matrix(27.014,0,0,27.0247,243.126,216.197)">
            <g transform="matrix(1,0,0,1,-9,-8)">
                <path d="M12.5,3L12.5,3.022C12.334,3.009 12.169,3 12,3L8,3C7.484,3 6.984,3.066 6.506,3.188C6.503,3.125 6.5,3.063 6.5,3C6.5,1.344 7.844,0 9.5,0C11.156,0 12.5,1.344 12.5,3ZM12,4C12.109,4 12.219,4.003 12.325,4.009C12.456,4.019 12.587,4.031 12.719,4.05C13.269,3.409 14.088,3 15,3L15.359,3C15.684,3 15.922,3.306 15.844,3.622L15.413,5.347C15.906,5.809 16.309,6.372 16.584,7L17,7C17.553,7 18,7.447 18,8L18,11C18,11.553 17.553,12 17,12L16,12C15.716,12.378 15.378,12.716 15,13L15,15C15,15.553 14.553,16 14,16L13,16C12.447,16 12,15.553 12,15L12,14L8,14L8,15C8,15.553 7.553,16 7,16L6,16C5.447,16 5,15.553 5,15L5,13C3.909,12.181 3.166,10.928 3.025,9.5L2.125,9.5C0.95,9.5 0,8.55 0,7.375C0,6.2 0.95,5.25 2.125,5.25L2.25,5.25C2.666,5.25 3,5.584 3,6C3,6.416 2.666,6.75 2.25,6.75L2.125,6.75C1.781,6.75 1.5,7.031 1.5,7.375C1.5,7.719 1.781,8 2.125,8L3.1,8C3.478,6.131 4.903,4.641 6.734,4.163C7.138,4.056 7.563,4 8,4L12,4Z" style="fill:rgb(43,108,127);fill-rule:nonzero;"/>
            </g>
        </g>
        <g id="sack-dollar-light.svg" transform="matrix(12.5139,0,0,12.5139,272.637,244.047)">
            <g transform="matrix(1,0,0,1,-8,-8)">
                <path d="M6.297,4.5L9.703,4.5L9.869,4.606C11.581,5.703 15,8.384 15,13C15,14.103 14.103,15 13,15L3,15C1.897,15 1,14.103 1,13C1,8.384 4.419,5.703 6.134,4.606L6.3,4.5L6.297,4.5ZM9.375,3.5L6.628,3.5L6.419,3.194L4.903,1L11.097,1L9.584,3.194L9.375,3.5ZM4.769,4.328C2.85,5.741 0,8.544 0,13C0,14.656 1.344,16 3,16L13,16C14.656,16 16,14.656 16,13C16,8.544 13.15,5.741 11.231,4.328C10.928,4.106 10.65,3.916 10.406,3.763L10.975,2.938L12.191,1.175C12.531,0.678 12.175,0 11.572,0L4.428,0C3.825,0 3.469,0.678 3.809,1.175L5.025,2.938L5.594,3.763C5.353,3.916 5.072,4.106 4.769,4.328ZM8.5,6.75C8.5,6.475 8.275,6.25 8,6.25C7.725,6.25 7.5,6.475 7.5,6.75L7.5,7.291C7.241,7.338 6.978,7.425 6.747,7.563C6.341,7.803 6,8.222 6.003,8.828C6.006,9.403 6.341,9.769 6.712,9.994C7.041,10.191 7.456,10.319 7.8,10.422L7.85,10.438C8.241,10.556 8.544,10.653 8.756,10.788C8.941,10.903 8.997,11.006 8.997,11.15C9,11.356 8.912,11.488 8.753,11.588C8.572,11.7 8.3,11.763 8.012,11.753C7.644,11.741 7.303,11.625 6.878,11.481C6.806,11.456 6.731,11.431 6.656,11.406C6.394,11.319 6.112,11.459 6.025,11.722C5.937,11.984 6.078,12.266 6.341,12.353C6.403,12.375 6.469,12.397 6.534,12.419C6.822,12.519 7.15,12.631 7.5,12.697L7.5,13.25C7.5,13.525 7.725,13.75 8,13.75C8.275,13.75 8.5,13.525 8.5,13.25L8.5,12.716C8.772,12.672 9.044,12.581 9.284,12.431C9.7,12.172 10.009,11.737 10,11.131C9.994,10.553 9.669,10.175 9.291,9.937C8.947,9.722 8.509,9.587 8.156,9.481L8.141,9.478C7.747,9.359 7.444,9.266 7.228,9.137C7.041,9.025 7.003,8.937 7,8.822C7,8.653 7.075,8.528 7.253,8.422C7.447,8.306 7.725,8.244 7.991,8.25C8.306,8.256 8.647,8.322 8.994,8.416C9.259,8.487 9.534,8.328 9.606,8.062C9.678,7.797 9.519,7.522 9.253,7.45C9.019,7.387 8.766,7.328 8.5,7.291L8.5,6.75Z" style="fill:url(#_Linear3);fill-rule:nonzero;"/>
            </g>
        </g>
    </g>
    <defs>
        <linearGradient id="_Linear1" x1="0" y1="0" x2="1" y2="0" gradientUnits="userSpaceOnUse" gradientTransform="matrix(1437.52,0,-0,96.6929,488.814,155.418)"><stop offset="0" style="stop-color:rgb(176,216,169);stop-opacity:0.7"/><stop offset="1" style="stop-color:rgb(156,215,213);stop-opacity:0.7"/></linearGradient>
        <linearGradient id="_Linear2" x1="0" y1="0" x2="1" y2="0" gradientUnits="userSpaceOnUse" gradientTransform="matrix(1104.33,0,-0,1104.33,43.4779,1394.69)"><stop offset="0" style="stop-color:rgb(176,216,169);stop-opacity:1"/><stop offset="1" style="stop-color:rgb(155,214,213);stop-opacity:1"/></linearGradient>
        <linearGradient id="_Linear3" x1="0" y1="0" x2="1" y2="0" gradientUnits="userSpaceOnUse" gradientTransform="matrix(15.4479,-6.47292,6.47292,15.4479,0.407789,12.0592)"><stop offset="0" style="stop-color:rgb(174,217,170);stop-opacity:1"/><stop offset="1" style="stop-color:rgb(151,215,222);stop-opacity:1"/></linearGradient>
    </defs>
</svg>
